<svg aria-hidden="true" style="position: absolute; width: 0; height: 0; overflow: hidden;" version="1.1" xmlns="http://www.w3.org/2000/svg" xmlns:xlink="http://www.w3.org/1999/xlink">
<defs>
<symbol id="star" viewBox="0 0 32 32">
<path fill="none" stroke="#fff" style="stroke: var(--color3, #fff)" stroke-linejoin="round" stroke-linecap="round" stroke-miterlimit="4" stroke-width="2.6667" d="M14.689 3.752c0.057-0.306 0.219-0.582 0.459-0.781s0.541-0.308 0.852-0.308c0.311 0 0.613 0.109 0.852 0.308s0.402 0.475 0.459 0.781l1.401 7.411c0.1 0.527 0.356 1.011 0.735 1.391s0.864 0.635 1.391 0.735l7.411 1.401c0.306 0.057 0.582 0.219 0.781 0.459s0.308 0.541 0.308 0.852c0 0.311-0.109 0.613-0.308 0.852s-0.475 0.402-0.781 0.459l-7.411 1.401c-0.527 0.1-1.012 0.356-1.391 0.735s-0.635 0.864-0.735 1.391l-1.401 7.411c-0.057 0.306-0.219 0.582-0.459 0.781s-0.541 0.308-0.852 0.308c-0.311 0-0.612-0.109-0.852-0.308s-0.402-0.475-0.459-0.781l-1.401-7.411c-0.1-0.527-0.356-1.012-0.735-1.391s-0.864-0.635-1.391-0.735l-7.411-1.401c-0.306-0.057-0.582-0.219-0.781-0.459s-0.308-0.541-0.308-0.852c0-0.311 0.109-0.612 0.308-0.852s0.475-0.402 0.781-0.459l7.411-1.401c0.527-0.1 1.011-0.356 1.391-0.735s0.635-0.864 0.735-1.391l1.401-7.411z"></path>
<path fill="none" stroke="#fff" style="stroke: var(--color3, #fff)" stroke-linejoin="round" stroke-linecap="round" stroke-miterlimit="4" stroke-width="2.6667" d="M26.667 2.667v5.333"></path>
<path fill="none" stroke="#fff" style="stroke: var(--color3, #fff)" stroke-linejoin="round" stroke-linecap="round" stroke-miterlimit="4" stroke-width="2.6667" d="M29.333 5.333h-5.333"></path>
<path fill="none" stroke="#fff" style="stroke: var(--color3, #fff)" stroke-linejoin="round" stroke-linecap="round" stroke-miterlimit="4" stroke-width="2.6667" d="M5.333 29.333c1.473 0 2.667-1.194 2.667-2.667s-1.194-2.667-2.667-2.667-2.667 1.194-2.667 2.667c0 1.473 1.194 2.667 2.667 2.667z"></path>
</symbol>
<symbol id="stick" viewBox="0 0 32 32">
<path fill="none" stroke="#fff" style="stroke: var(--color3, #fff)" stroke-linejoin="round" stroke-linecap="round" stroke-miterlimit="4" stroke-width="2.6667" d="M19.333 2.667v23.333c0 1.867-1.467 3.333-3.333 3.333s-3.333-1.467-3.333-3.333v-23.333"></path>
<path fill="none" stroke="#fff" style="stroke: var(--color3, #fff)" stroke-linejoin="round" stroke-linecap="round" stroke-miterlimit="4" stroke-width="2.6667" d="M11.333 2.667h9.333"></path>
<path fill="none" stroke="#fff" style="stroke: var(--color3, #fff)" stroke-linejoin="round" stroke-linecap="round" stroke-miterlimit="4" stroke-width="2.6667" d="M19.333 21.333h-6.667"></path>
</symbol>
<symbol id="pencil" viewBox="0 0 32 32">
<path fill="none" stroke="#fff" style="stroke: var(--color3, #fff)" stroke-linejoin="round" stroke-linecap="round" stroke-miterlimit="4" stroke-width="2.6667" d="M28.232 9.083c0.705-0.705 1.101-1.661 1.101-2.658s-0.396-1.953-1.1-2.658c-0.705-0.705-1.661-1.101-2.658-1.101s-1.953 0.396-2.658 1.1l-17.795 17.799c-0.31 0.309-0.538 0.689-0.667 1.107l-1.761 5.803c-0.034 0.115-0.037 0.238-0.008 0.355s0.090 0.223 0.175 0.308c0.085 0.085 0.192 0.145 0.308 0.175s0.239 0.026 0.354-0.008l5.804-1.76c0.418-0.127 0.798-0.355 1.107-0.663l17.796-17.799z"></path>
<path fill="none" stroke="#fff" style="stroke: var(--color3, #fff)" stroke-linejoin="round" stroke-linecap="round" stroke-miterlimit="4" stroke-width="2.6667" d="M20 6.667l5.333 5.333"></path>
</symbol>
<symbol id="bulb" viewBox="0 0 32 32">
<path fill="none" stroke="#fff" style="stroke: var(--color3, #fff)" stroke-linejoin="round" stroke-linecap="round" stroke-miterlimit="4" stroke-width="2.6667" d="M20 18.667c0.267-1.333 0.933-2.267 2-3.333 1.333-1.2 2-2.933 2-4.667 0-2.122-0.843-4.157-2.343-5.657s-3.535-2.343-5.657-2.343-4.157 0.843-5.657 2.343c-1.5 1.5-2.343 3.535-2.343 5.657 0 1.333 0.267 2.933 2 4.667 0.933 0.933 1.733 2 2 3.333"></path>
<path fill="none" stroke="#fff" style="stroke: var(--color3, #fff)" stroke-linejoin="round" stroke-linecap="round" stroke-miterlimit="4" stroke-width="2.6667" d="M12 24h8"></path>
<path fill="none" stroke="#fff" style="stroke: var(--color3, #fff)" stroke-linejoin="round" stroke-linecap="round" stroke-miterlimit="4" stroke-width="2.6667" d="M13.333 29.333h5.333"></path>
</symbol>
<symbol id="search" viewBox="0 0 32 32">
<path fill="none" stroke="#fff" style="stroke: var(--color3, #fff)" stroke-linejoin="round" stroke-linecap="round" stroke-miterlimit="4" stroke-width="2.6667" d="M28 28l-5.787-5.787"></path>
<path fill="none" stroke="#fff" style="stroke: var(--color3, #fff)" stroke-linejoin="round" stroke-linecap="round" stroke-miterlimit="4" stroke-width="2.6667" d="M14.667 25.333c5.891 0 10.667-4.776 10.667-10.667s-4.776-10.667-10.667-10.667c-5.891 0-10.667 4.776-10.667 10.667s4.776 10.667 10.667 10.667z"></path>
</symbol>
<symbol id="heart" viewBox="0 0 32 32">
<path fill="#f4a5b9" style="fill: var(--color4, #f4a5b9); stroke: var(--color4, #f4a5b9)" stroke="#f4a5b9" stroke-linejoin="round" stroke-linecap="round" stroke-miterlimit="4" stroke-width="2.6667" d="M2.667 12.667c0-1.484 0.45-2.933 1.291-4.155s2.033-2.161 3.418-2.692c1.385-0.531 2.899-0.629 4.342-0.282s2.746 1.124 3.737 2.228c0.070 0.075 0.154 0.134 0.248 0.175s0.195 0.062 0.297 0.062c0.102 0 0.203-0.021 0.297-0.062s0.178-0.1 0.248-0.175c0.989-1.111 2.292-1.894 3.737-2.246s2.962-0.255 4.351 0.277c1.389 0.532 2.582 1.475 3.422 2.702s1.286 2.681 1.279 4.168c0 3.053-2 5.333-4 7.333l-7.323 7.084c-0.248 0.285-0.555 0.515-0.899 0.672s-0.717 0.241-1.096 0.243c-0.378 0.002-0.753-0.076-1.099-0.229s-0.655-0.379-0.907-0.661l-7.344-7.109c-2-2-4-4.267-4-7.333z"></path>
</symbol>
<symbol id="instagram" viewBox="0 0 32 32">
<path d="M16 0c-4.346 0-4.89 0.019-6.597 0.096-1.702 0.078-2.866 0.349-3.883 0.744-1.068 0.401-2.036 1.031-2.835 1.845-0.814 0.8-1.444 1.767-1.845 2.835-0.395 1.018-0.666 2.181-0.744 3.883-0.078 1.707-0.096 2.251-0.096 6.597s0.018 4.89 0.096 6.597c0.078 1.702 0.349 2.866 0.744 3.883 0.401 1.068 1.031 2.036 1.845 2.835 0.8 0.814 1.767 1.444 2.835 1.845 1.018 0.395 2.181 0.666 3.883 0.744 1.707 0.077 2.251 0.096 6.597 0.096s4.89-0.019 6.597-0.096c1.702-0.078 2.866-0.349 3.883-0.744 1.068-0.401 2.036-1.031 2.835-1.845 0.814-0.8 1.444-1.767 1.845-2.835 0.395-1.018 0.666-2.181 0.744-3.883 0.077-1.707 0.096-2.251 0.096-6.597s-0.019-4.89-0.096-6.597c-0.078-1.702-0.349-2.866-0.744-3.883-0.401-1.068-1.031-2.036-1.845-2.835-0.8-0.814-1.767-1.444-2.835-1.845-1.018-0.395-2.181-0.666-3.883-0.744-1.707-0.077-2.251-0.096-6.597-0.096zM16 2.883c4.272 0 4.778 0.016 6.464 0.093 1.562 0.072 2.408 0.331 2.973 0.55 0.746 0.291 1.28 0.638 1.84 1.197 0.56 0.56 0.906 1.094 1.197 1.84 0.218 0.565 0.48 1.411 0.55 2.971 0.077 1.688 0.093 2.192 0.093 6.466 0 4.272-0.016 4.778-0.093 6.464-0.072 1.562-0.333 2.408-0.55 2.973-0.256 0.695-0.665 1.324-1.197 1.84-0.56 0.56-1.094 0.906-1.84 1.197-0.565 0.218-1.411 0.48-2.971 0.55-1.686 0.077-2.192 0.093-6.466 0.093-4.272 0-4.779-0.016-6.464-0.093-1.562-0.072-2.408-0.333-2.973-0.55-0.695-0.256-1.324-0.665-1.84-1.197-0.531-0.516-0.94-1.145-1.197-1.84-0.219-0.565-0.48-1.411-0.55-2.971-0.077-1.688-0.093-2.192-0.093-6.466 0-4.272 0.016-4.778 0.093-6.464 0.072-1.562 0.331-2.408 0.55-2.973 0.291-0.746 0.638-1.28 1.197-1.84 0.56-0.56 1.094-0.906 1.84-1.197 0.565-0.219 1.411-0.48 2.971-0.55 1.688-0.077 2.192-0.093 6.466-0.093zM16 21.333c-1.414 0-2.771-0.562-3.771-1.562s-1.562-2.356-1.562-3.771c0-1.414 0.562-2.771 1.562-3.771s2.357-1.562 3.771-1.562c1.414 0 2.771 0.562 3.771 1.562s1.562 2.357 1.562 3.771c0 1.414-0.562 2.771-1.562 3.771s-2.356 1.562-3.771 1.562zM16 7.784c-1.079 0-2.147 0.213-3.144 0.625s-1.903 1.018-2.665 1.781c-0.763 0.763-1.368 1.669-1.781 2.665s-0.625 2.065-0.625 3.144c0 1.079 0.213 2.147 0.625 3.144s1.018 1.903 1.781 2.665c0.763 0.763 1.669 1.368 2.665 1.781s2.065 0.625 3.144 0.625c2.179 0 4.269-0.866 5.81-2.406s2.406-3.631 2.406-5.81c0-2.179-0.866-4.269-2.406-5.81s-3.631-2.406-5.81-2.406zM26.461 7.459c0 0.252-0.050 0.502-0.146 0.735s-0.238 0.445-0.416 0.623c-0.178 0.178-0.39 0.32-0.623 0.416s-0.483 0.146-0.735 0.146c-0.252 0-0.502-0.050-0.735-0.146s-0.445-0.238-0.623-0.416c-0.178-0.178-0.32-0.39-0.416-0.623s-0.146-0.483-0.146-0.735c0-0.509 0.202-0.998 0.562-1.358s0.848-0.562 1.358-0.562 0.998 0.202 1.358 0.562c0.36 0.36 0.562 0.848 0.562 1.358z"></path>
</symbol>
<symbol id="icon_right_arrow" viewBox="0 0 32 32">
<path d="M10.020 4.373c0.184-0.184 0.482-0.184 0.665 0l11.294 11.294c0.184 0.184 0.184 0.482 0 0.666l-11.294 11.294c-0.184 0.184-0.482 0.184-0.665 0s-0.184-0.482 0-0.666l10.961-10.961-10.961-10.961c-0.184-0.184-0.184-0.482 0-0.665z"></path>
</symbol>
<symbol id="icon_left_arrow" viewBox="0 0 32 32">
<path d="M21.98 4.373c-0.184-0.184-0.482-0.184-0.666 0l-11.294 11.294c-0.184 0.184-0.184 0.482 0 0.666l11.294 11.294c0.184 0.184 0.482 0.184 0.666 0s0.184-0.482 0-0.666l-10.961-10.961 10.961-10.961c0.184-0.184 0.184-0.482 0-0.665z"></path>
</symbol>
<symbol id="icon_telegram" viewBox="0 0 32 32">
<path d="M28.016 1.443c0.35-0.122 0.727-0.145 1.090-0.064 0.277 0.062 0.538 0.182 0.764 0.352l0.213 0.184 0.186 0.215c0.113 0.15 0.203 0.316 0.27 0.492l0.082 0.27 0.041 0.279c0.021 0.274-0.016 0.549-0.107 0.811l0.002 0.002-8.666 25.332c-0.132 0.385-0.379 0.722-0.707 0.963s-0.725 0.376-1.133 0.387c-0.408 0.010-0.809-0.104-1.15-0.328s-0.604-0.547-0.756-0.926l-4.24-10.574-0.125-0.238c-0.049-0.074-0.106-0.144-0.17-0.207-0.127-0.127-0.278-0.228-0.445-0.295l-10.574-4.24c-0.378-0.152-0.702-0.415-0.926-0.756s-0.338-0.743-0.328-1.15l0.031-0.303c0.054-0.299 0.174-0.583 0.355-0.83 0.241-0.329 0.577-0.577 0.963-0.709l25.332-8.664zM5.247 12.048l8.906 3.572c0.501 0.201 0.958 0.499 1.34 0.881 0.286 0.286 0.527 0.614 0.715 0.971l0.17 0.367 3.57 8.91 7.645-22.346-22.346 7.645z"></path>
<path d="M28.193 1.919c0.52-0.52 1.364-0.52 1.885 0s0.521 1.366 0 1.887l-14.584 14.584c-0.521 0.521-1.366 0.521-1.887 0s-0.521-1.366 0-1.887l14.586-14.584z"></path>
</symbol>
<symbol id="icon_behance" viewBox="0 0 41 32">
<path d="M15.059 8c0-1.622-0.568-2.868-1.528-3.722-0.976-0.869-2.494-1.454-4.59-1.454h-6.118v10.353h6.118c2.096 0 3.614-0.585 4.59-1.454 0.959-0.855 1.528-2.1 1.528-3.722zM17.882 8c0 2.331-0.843 4.38-2.472 5.831-1.613 1.437-3.859 2.169-6.469 2.169h-7.529c-0.78 0-1.412-0.632-1.412-1.412v-13.176c0-0.78 0.632-1.412 1.412-1.412h7.529c2.61 0 4.856 0.733 6.469 2.169 1.629 1.451 2.472 3.5 2.472 5.831z"></path>
<path d="M16.941 22.118c0-2.008-0.684-3.483-1.801-4.472-1.139-1.008-2.884-1.645-5.228-1.645h-7.088v12.235h7.088c2.344 0 4.089-0.637 5.228-1.645 1.118-0.989 1.801-2.464 1.801-4.472zM19.765 22.118c0 2.698-0.947 4.987-2.754 6.586-1.786 1.58-4.262 2.355-7.099 2.355h-8.5c-0.78 0-1.412-0.632-1.412-1.412v-15.059c0-0.78 0.632-1.412 1.412-1.412h8.5c2.837 0 5.313 0.775 7.099 2.355 1.807 1.599 2.754 3.889 2.754 6.586z"></path>
<path d="M36.945 26.033c0.434-0.644 1.309-0.815 1.956-0.384 0.649 0.432 0.824 1.309 0.392 1.958l-1.175-0.783c1.166 0.778 1.175 0.784 1.175 0.785l-0.004 0.004c-0.002 0.002-0.004 0.005-0.006 0.008-0.003 0.005-0.007 0.010-0.011 0.016-0.009 0.013-0.020 0.028-0.033 0.046-0.025 0.035-0.059 0.081-0.101 0.134-0.085 0.108-0.206 0.252-0.362 0.417-0.313 0.331-0.775 0.757-1.404 1.176-1.271 0.847-3.187 1.649-5.842 1.649-2.762 0-5.040-1.12-6.607-2.971-1.546-1.828-2.334-4.286-2.334-6.912s0.788-5.084 2.334-6.912c1.566-1.851 3.845-2.971 6.607-2.971 3.28 0 5.59 1.398 7.031 3.415 1.394 1.952 1.91 4.383 1.91 6.467 0 0.78-0.632 1.412-1.412 1.412h-13.546c0.216 1.472 0.767 2.734 1.564 3.676 1.022 1.208 2.508 1.971 4.452 1.971 2.051 0 3.429-0.61 4.276-1.175 0.429-0.286 0.732-0.567 0.919-0.765 0.093-0.098 0.157-0.176 0.193-0.222 0.014-0.018 0.024-0.033 0.029-0.040h-0.002zM31.529 14.118c-1.944 0-3.43 0.763-4.452 1.971-0.797 0.942-1.349 2.204-1.564 3.676h12.031c-0.176-1.232-0.588-2.445-1.281-3.415-0.912-1.277-2.367-2.232-4.733-2.232z"></path>
<path d="M37.176 4.706c0.78 0 1.412 0.632 1.412 1.412s-0.632 1.412-1.412 1.412h-11.294c-0.78 0-1.412-0.632-1.412-1.412s0.632-1.412 1.412-1.412h11.294z"></path>
</symbol>
<symbol id="icon_email" viewBox="0 0 32 32">
<path d="M28.615 8.208c0.621-0.395 1.445-0.212 1.841 0.409s0.213 1.445-0.408 1.841l-11.988 7.634c-0.015 0.010-0.031 0.019-0.047 0.028-0.61 0.354-1.304 0.542-2.009 0.542s-1.398-0.188-2.008-0.542c-0.016-0.009-0.032-0.019-0.047-0.028l-11.998-7.634c-0.621-0.395-0.805-1.219-0.409-1.841s1.219-0.805 1.841-0.409l11.958 7.609c0.202 0.116 0.431 0.178 0.664 0.178 0.231 0 0.457-0.061 0.658-0.175l11.953-7.613z"></path>
<path d="M27.998 8c0-0.736-0.597-1.334-1.333-1.334h-21.331c-0.736 0-1.334 0.598-1.334 1.334v15.998c0 0.736 0.598 1.333 1.334 1.333h21.331c0.736-0 1.332-0.597 1.333-1.333v-15.998zM30.663 23.998c-0 2.209-1.79 3.998-3.999 3.998h-21.331c-2.209 0-4-1.79-4-3.998v-15.998c0-2.209 1.791-4 4-4h21.331c2.209 0 3.999 1.791 3.999 4v15.998z"></path>
</symbol>
<symbol id="arrow_right_click" viewBox="0 0 32 32">
<path stroke-linejoin="round" stroke-linecap="round" stroke-miterlimit="4" stroke-width="2.6664" d="M6.666 15.999h18.665"></path>
<path d="M15.056 5.723c0.521-0.521 1.366-0.521 1.887 0l9.332 9.334c0.52 0.521 0.521 1.364 0 1.885l-9.332 9.332c-0.521 0.521-1.366 0.521-1.887 0s-0.52-1.364 0-1.885l8.391-8.391-8.391-8.389c-0.521-0.521-0.521-1.366 0-1.887z"></path>
</symbol>
</defs>
</svg>
