<svg aria-hidden="true" style="position: absolute; width: 0; height: 0; overflow: hidden;" version="1.1" xmlns="http://www.w3.org/2000/svg" xmlns:xlink="http://www.w3.org/1999/xlink">
<defs>
<symbol id="star" viewBox="0 0 32 32">
<path fill="none" stroke="#fff" style="stroke: var(--color3, #fff)" stroke-linejoin="round" stroke-linecap="round" stroke-miterlimit="4" stroke-width="2.6667" d="M14.689 3.752c0.057-0.306 0.219-0.582 0.459-0.781s0.541-0.308 0.852-0.308c0.311 0 0.613 0.109 0.852 0.308s0.402 0.475 0.459 0.781l1.401 7.411c0.1 0.527 0.356 1.011 0.735 1.391s0.864 0.635 1.391 0.735l7.411 1.401c0.306 0.057 0.582 0.219 0.781 0.459s0.308 0.541 0.308 0.852c0 0.311-0.109 0.613-0.308 0.852s-0.475 0.402-0.781 0.459l-7.411 1.401c-0.527 0.1-1.012 0.356-1.391 0.735s-0.635 0.864-0.735 1.391l-1.401 7.411c-0.057 0.306-0.219 0.582-0.459 0.781s-0.541 0.308-0.852 0.308c-0.311 0-0.612-0.109-0.852-0.308s-0.402-0.475-0.459-0.781l-1.401-7.411c-0.1-0.527-0.356-1.012-0.735-1.391s-0.864-0.635-1.391-0.735l-7.411-1.401c-0.306-0.057-0.582-0.219-0.781-0.459s-0.308-0.541-0.308-0.852c0-0.311 0.109-0.612 0.308-0.852s0.475-0.402 0.781-0.459l7.411-1.401c0.527-0.1 1.011-0.356 1.391-0.735s0.635-0.864 0.735-1.391l1.401-7.411z"></path>
<path fill="none" stroke="#fff" style="stroke: var(--color3, #fff)" stroke-linejoin="round" stroke-linecap="round" stroke-miterlimit="4" stroke-width="2.6667" d="M26.667 2.667v5.333"></path>
<path fill="none" stroke="#fff" style="stroke: var(--color3, #fff)" stroke-linejoin="round" stroke-linecap="round" stroke-miterlimit="4" stroke-width="2.6667" d="M29.333 5.333h-5.333"></path>
<path fill="none" stroke="#fff" style="stroke: var(--color3, #fff)" stroke-linejoin="round" stroke-linecap="round" stroke-miterlimit="4" stroke-width="2.6667" d="M5.333 29.333c1.473 0 2.667-1.194 2.667-2.667s-1.194-2.667-2.667-2.667-2.667 1.194-2.667 2.667c0 1.473 1.194 2.667 2.667 2.667z"></path>
</symbol>
<symbol id="stick" viewBox="0 0 32 32">
<path fill="none" stroke="#fff" style="stroke: var(--color3, #fff)" stroke-linejoin="round" stroke-linecap="round" stroke-miterlimit="4" stroke-width="2.6667" d="M19.333 2.667v23.333c0 1.867-1.467 3.333-3.333 3.333s-3.333-1.467-3.333-3.333v-23.333"></path>
<path fill="none" stroke="#fff" style="stroke: var(--color3, #fff)" stroke-linejoin="round" stroke-linecap="round" stroke-miterlimit="4" stroke-width="2.6667" d="M11.333 2.667h9.333"></path>
<path fill="none" stroke="#fff" style="stroke: var(--color3, #fff)" stroke-linejoin="round" stroke-linecap="round" stroke-miterlimit="4" stroke-width="2.6667" d="M19.333 21.333h-6.667"></path>
</symbol>
<symbol id="pencil" viewBox="0 0 32 32">
<path fill="none" stroke="#fff" style="stroke: var(--color3, #fff)" stroke-linejoin="round" stroke-linecap="round" stroke-miterlimit="4" stroke-width="2.6667" d="M28.232 9.083c0.705-0.705 1.101-1.661 1.101-2.658s-0.396-1.953-1.1-2.658c-0.705-0.705-1.661-1.101-2.658-1.101s-1.953 0.396-2.658 1.1l-17.795 17.799c-0.31 0.309-0.538 0.689-0.667 1.107l-1.761 5.803c-0.034 0.115-0.037 0.238-0.008 0.355s0.090 0.223 0.175 0.308c0.085 0.085 0.192 0.145 0.308 0.175s0.239 0.026 0.354-0.008l5.804-1.76c0.418-0.127 0.798-0.355 1.107-0.663l17.796-17.799z"></path>
<path fill="none" stroke="#fff" style="stroke: var(--color3, #fff)" stroke-linejoin="round" stroke-linecap="round" stroke-miterlimit="4" stroke-width="2.6667" d="M20 6.667l5.333 5.333"></path>
</symbol>
<symbol id="bulb" viewBox="0 0 32 32">
<path fill="none" stroke="#fff" style="stroke: var(--color3, #fff)" stroke-linejoin="round" stroke-linecap="round" stroke-miterlimit="4" stroke-width="2.6667" d="M20 18.667c0.267-1.333 0.933-2.267 2-3.333 1.333-1.2 2-2.933 2-4.667 0-2.122-0.843-4.157-2.343-5.657s-3.535-2.343-5.657-2.343-4.157 0.843-5.657 2.343c-1.5 1.5-2.343 3.535-2.343 5.657 0 1.333 0.267 2.933 2 4.667 0.933 0.933 1.733 2 2 3.333"></path>
<path fill="none" stroke="#fff" style="stroke: var(--color3, #fff)" stroke-linejoin="round" stroke-linecap="round" stroke-miterlimit="4" stroke-width="2.6667" d="M12 24h8"></path>
<path fill="none" stroke="#fff" style="stroke: var(--color3, #fff)" stroke-linejoin="round" stroke-linecap="round" stroke-miterlimit="4" stroke-width="2.6667" d="M13.333 29.333h5.333"></path>
</symbol>
<symbol id="search" viewBox="0 0 32 32">
<path fill="none" stroke="#fff" style="stroke: var(--color3, #fff)" stroke-linejoin="round" stroke-linecap="round" stroke-miterlimit="4" stroke-width="2.6667" d="M28 28l-5.787-5.787"></path>
<path fill="none" stroke="#fff" style="stroke: var(--color3, #fff)" stroke-linejoin="round" stroke-linecap="round" stroke-miterlimit="4" stroke-width="2.6667" d="M14.667 25.333c5.891 0 10.667-4.776 10.667-10.667s-4.776-10.667-10.667-10.667c-5.891 0-10.667 4.776-10.667 10.667s4.776 10.667 10.667 10.667z"></path>
</symbol>
<symbol id="heart" viewBox="0 0 32 32">
<path fill="#f4a5b9" style="fill: var(--color4, #f4a5b9); stroke: var(--color4, #f4a5b9)" stroke="#f4a5b9" stroke-linejoin="round" stroke-linecap="round" stroke-miterlimit="4" stroke-width="2.6667" d="M2.667 12.667c0-1.484 0.45-2.933 1.291-4.155s2.033-2.161 3.418-2.692c1.385-0.531 2.899-0.629 4.342-0.282s2.746 1.124 3.737 2.228c0.070 0.075 0.154 0.134 0.248 0.175s0.195 0.062 0.297 0.062c0.102 0 0.203-0.021 0.297-0.062s0.178-0.1 0.248-0.175c0.989-1.111 2.292-1.894 3.737-2.246s2.962-0.255 4.351 0.277c1.389 0.532 2.582 1.475 3.422 2.702s1.286 2.681 1.279 4.168c0 3.053-2 5.333-4 7.333l-7.323 7.084c-0.248 0.285-0.555 0.515-0.899 0.672s-0.717 0.241-1.096 0.243c-0.378 0.002-0.753-0.076-1.099-0.229s-0.655-0.379-0.907-0.661l-7.344-7.109c-2-2-4-4.267-4-7.333z"></path>
</symbol>
<symbol id="instagram" viewBox="0 0 32 32">
<path d="M16 0c-4.346 0-4.89 0.019-6.597 0.096-1.702 0.078-2.866 0.349-3.883 0.744-1.068 0.401-2.036 1.031-2.835 1.845-0.814 0.8-1.444 1.767-1.845 2.835-0.395 1.018-0.666 2.181-0.744 3.883-0.078 1.707-0.096 2.251-0.096 6.597s0.018 4.89 0.096 6.597c0.078 1.702 0.349 2.866 0.744 3.883 0.401 1.068 1.031 2.036 1.845 2.835 0.8 0.814 1.767 1.444 2.835 1.845 1.018 0.395 2.181 0.666 3.883 0.744 1.707 0.077 2.251 0.096 6.597 0.096s4.89-0.019 6.597-0.096c1.702-0.078 2.866-0.349 3.883-0.744 1.068-0.401 2.036-1.031 2.835-1.845 0.814-0.8 1.444-1.767 1.845-2.835 0.395-1.018 0.666-2.181 0.744-3.883 0.077-1.707 0.096-2.251 0.096-6.597s-0.019-4.89-0.096-6.597c-0.078-1.702-0.349-2.866-0.744-3.883-0.401-1.068-1.031-2.036-1.845-2.835-0.8-0.814-1.767-1.444-2.835-1.845-1.018-0.395-2.181-0.666-3.883-0.744-1.707-0.077-2.251-0.096-6.597-0.096zM16 2.883c4.272 0 4.778 0.016 6.464 0.093 1.562 0.072 2.408 0.331 2.973 0.55 0.746 0.291 1.28 0.638 1.84 1.197 0.56 0.56 0.906 1.094 1.197 1.84 0.218 0.565 0.48 1.411 0.55 2.971 0.077 1.688 0.093 2.192 0.093 6.466 0 4.272-0.016 4.778-0.093 6.464-0.072 1.562-0.333 2.408-0.55 2.973-0.256 0.695-0.665 1.324-1.197 1.84-0.56 0.56-1.094 0.906-1.84 1.197-0.565 0.218-1.411 0.48-2.971 0.55-1.686 0.077-2.192 0.093-6.466 0.093-4.272 0-4.779-0.016-6.464-0.093-1.562-0.072-2.408-0.333-2.973-0.55-0.695-0.256-1.324-0.665-1.84-1.197-0.531-0.516-0.94-1.145-1.197-1.84-0.219-0.565-0.48-1.411-0.55-2.971-0.077-1.688-0.093-2.192-0.093-6.466 0-4.272 0.016-4.778 0.093-6.464 0.072-1.562 0.331-2.408 0.55-2.973 0.291-0.746 0.638-1.28 1.197-1.84 0.56-0.56 1.094-0.906 1.84-1.197 0.565-0.219 1.411-0.48 2.971-0.55 1.688-0.077 2.192-0.093 6.466-0.093zM16 21.333c-1.414 0-2.771-0.562-3.771-1.562s-1.562-2.356-1.562-3.771c0-1.414 0.562-2.771 1.562-3.771s2.357-1.562 3.771-1.562c1.414 0 2.771 0.562 3.771 1.562s1.562 2.357 1.562 3.771c0 1.414-0.562 2.771-1.562 3.771s-2.356 1.562-3.771 1.562zM16 7.784c-1.079 0-2.147 0.213-3.144 0.625s-1.903 1.018-2.665 1.781c-0.763 0.763-1.368 1.669-1.781 2.665s-0.625 2.065-0.625 3.144c0 1.079 0.213 2.147 0.625 3.144s1.018 1.903 1.781 2.665c0.763 0.763 1.669 1.368 2.665 1.781s2.065 0.625 3.144 0.625c2.179 0 4.269-0.866 5.81-2.406s2.406-3.631 2.406-5.81c0-2.179-0.866-4.269-2.406-5.81s-3.631-2.406-5.81-2.406zM26.461 7.459c0 0.252-0.050 0.502-0.146 0.735s-0.238 0.445-0.416 0.623c-0.178 0.178-0.39 0.32-0.623 0.416s-0.483 0.146-0.735 0.146c-0.252 0-0.502-0.050-0.735-0.146s-0.445-0.238-0.623-0.416c-0.178-0.178-0.32-0.39-0.416-0.623s-0.146-0.483-0.146-0.735c0-0.509 0.202-0.998 0.562-1.358s0.848-0.562 1.358-0.562 0.998 0.202 1.358 0.562c0.36 0.36 0.562 0.848 0.562 1.358z"></path>
</symbol>
<symbol id="icon_right_arrow" viewBox="0 0 17 32">
<path stroke-linejoin="round" stroke-linecap="round" stroke-miterlimit="4" stroke-width="1.28" d="M0.64 0.64l15.36 15.36-15.36 15.36"></path>
</symbol>
<symbol id="icon_left_arrow" viewBox="0 0 17 32">
<path stroke-linejoin="round" stroke-linecap="round" stroke-miterlimit="4" stroke-width="1.28" d="M16 0.64l-15.36 15.36 15.36 15.36"></path>
</symbol>
<symbol id="icon_telegram" viewBox="0 0 32 32">
<path stroke-linejoin="round" stroke-linecap="round" stroke-miterlimit="4" stroke-width="2.6667" d="M19.381 28.915c0.051 0.126 0.139 0.234 0.252 0.309s0.247 0.113 0.383 0.109c0.136-0.003 0.268-0.048 0.377-0.129s0.192-0.193 0.236-0.321l8.667-25.333c0.043-0.118 0.051-0.246 0.023-0.369s-0.089-0.235-0.178-0.324-0.201-0.151-0.324-0.178c-0.123-0.027-0.251-0.019-0.369 0.023l-25.333 8.667c-0.129 0.044-0.241 0.127-0.321 0.236s-0.125 0.241-0.129 0.377c-0.003 0.136 0.035 0.27 0.109 0.383s0.182 0.202 0.309 0.252l10.573 4.24c0.334 0.134 0.638 0.334 0.893 0.588s0.456 0.558 0.59 0.892l4.24 10.576z"></path>
<path stroke-linejoin="round" stroke-linecap="round" stroke-miterlimit="4" stroke-width="2.6667" d="M29.138 2.863l-14.587 14.585"></path>
</symbol>
<symbol id="icon_behance" viewBox="0 0 32 32">
<path stroke-linejoin="round" stroke-linecap="round" stroke-miterlimit="4" stroke-width="2" d="M8 16c3.333 0 5.333-1.867 5.333-4.667s-2-4.667-5.333-4.667c-3.333 0-5.333 0-5.333 0v9.333h5.333z"></path>
<path stroke-linejoin="round" stroke-linecap="round" stroke-miterlimit="4" stroke-width="2" d="M8.687 26.667c3.67 0 5.979-2 5.979-5.333s-2.309-5.333-5.979-5.333h-6.021v10.667h6.021z"></path>
<path stroke-linejoin="round" stroke-linecap="round" stroke-miterlimit="4" stroke-width="2" d="M19.333 20.667h10c0-2.667-1.333-6-5.333-6-3.333 0-5.333 2.667-5.333 6s2 6 5.333 6c3.333 0 4.667-2 4.667-2"></path>
<path stroke-linejoin="round" stroke-linecap="round" stroke-miterlimit="4" stroke-width="2" d="M28 10h-8"></path>
</symbol>
<symbol id="icon_email" viewBox="0 0 32 32">
<path stroke-linejoin="round" stroke-linecap="round" stroke-miterlimit="4" stroke-width="2.6667" d="M29.333 9.333l-11.988 7.636c-0.407 0.236-0.869 0.361-1.339 0.361s-0.933-0.124-1.339-0.361l-12-7.636"></path>
<path stroke-linejoin="round" stroke-linecap="round" stroke-miterlimit="4" stroke-width="2.6667" d="M26.666 5.333h-21.333c-1.473 0-2.667 1.194-2.667 2.667v16c0 1.473 1.194 2.667 2.667 2.667h21.333c1.473 0 2.667-1.194 2.667-2.667v-16c0-1.473-1.194-2.667-2.667-2.667z"></path>
</symbol>
<symbol id="arrow_right_click" viewBox="0 0 32 32">
<path stroke-linejoin="round" stroke-linecap="round" stroke-miterlimit="4" stroke-width="2.6667" d="M6.667 16h18.667"></path>
<path stroke-linejoin="round" stroke-linecap="round" stroke-miterlimit="4" stroke-width="2.6667" d="M16 6.667l9.333 9.333-9.333 9.333"></path>
</symbol>

</defs>
</svg>
