<svg aria-hidden="true" style="position: absolute; width: 0; height: 0; overflow: hidden;" version="1.1" xmlns="http://www.w3.org/2000/svg" xmlns:xlink="http://www.w3.org/1999/xlink">
<defs>
<symbol id="icon-right" viewBox="0 0 32 32">
<path d="M10.020 4.373c0.184-0.184 0.482-0.184 0.665 0l11.294 11.294c0.184 0.184 0.184 0.482 0 0.666l-11.294 11.294c-0.184 0.184-0.482 0.184-0.665 0s-0.184-0.482 0-0.666l10.961-10.961-10.961-10.961c-0.184-0.184-0.184-0.482 0-0.665z"></path>
</symbol>
<symbol id="icon-left" viewBox="0 0 32 32">
<path d="M21.98 4.373c-0.184-0.184-0.482-0.184-0.666 0l-11.294 11.294c-0.184 0.184-0.184 0.482 0 0.666l11.294 11.294c0.184 0.184 0.482 0.184 0.666 0s0.184-0.482 0-0.666l-10.961-10.961 10.961-10.961c0.184-0.184 0.184-0.482 0-0.665z"></path>
</symbol>
</defs>
</svg>
